HIERARCHY
ROOT Hips
{
	OFFSET 46.061199 -5.952876 95.668602
	CHANNELS 6 Xposition Yposition Zposition Xrotation Yrotation Zrotation
	JOINT spine
	{
		OFFSET 0.000000 -0.458068 7.965683
		CHANNELS 3 Xrotation Yrotation Zrotation
		JOINT spine1
		{
			OFFSET 0.000000 -0.000002 10.243103
			CHANNELS 3 Xrotation Yrotation Zrotation
			JOINT spine2
			{
				OFFSET 0.000000 -0.000001 9.814751
				CHANNELS 3 Xrotation Yrotation Zrotation
				JOINT Neck
				{
					OFFSET 0.000000 -1.201384 25.198608
					CHANNELS 3 Xrotation Yrotation Zrotation
					JOINT Head
					{
						OFFSET 0.000000 -0.000001 7.613144
						CHANNELS 3 Xrotation Yrotation Zrotation
						End Site
						{
							OFFSET 0.000000 6.077327 18.428101
						}
					}
				}
				JOINT RightShoulder
				{
					OFFSET -4.132702 0.575449 10.599197
					CHANNELS 3 Xrotation Yrotation Zrotation
					JOINT RightArm
					{
						OFFSET 0.000000 -0.000002 13.901794
						CHANNELS 3 Xrotation Yrotation Zrotation
						JOINT RightArmRoll
						{
							OFFSET 0.000000 -0.000001 7.017883
							CHANNELS 3 Xrotation Yrotation Zrotation
							JOINT RightForeArm
							{
								OFFSET 0.000000 -0.000003 20.440598
								CHANNELS 3 Xrotation Yrotation Zrotation
								JOINT RightForeArmRoll
								{
									OFFSET 0.000000 -0.000001 7.875153
									CHANNELS 3 Xrotation Yrotation Zrotation
									JOINT RightHand
									{
										OFFSET 0.000000 -0.000002 15.803696
										CHANNELS 3 Xrotation Yrotation Zrotation
										End Site
										{
											OFFSET 0.000000 0.000000 0.100006
										}
									}
								}
							}
						}
					}
				}
				JOINT LeftShoulder
				{
					OFFSET 4.132702 0.575449 10.599197
					CHANNELS 3 Xrotation Yrotation Zrotation
					JOINT LeftArm
					{
						OFFSET 0.000000 -0.000002 13.901794
						CHANNELS 3 Xrotation Yrotation Zrotation
						JOINT LeftArmRoll
						{
							OFFSET 0.000000 -0.000001 7.017883
							CHANNELS 3 Xrotation Yrotation Zrotation
							JOINT LeftForeArm
							{
								OFFSET 0.000000 -0.000003 20.440598
								CHANNELS 3 Xrotation Yrotation Zrotation
								JOINT LeftForeArmRoll
								{
									OFFSET 0.000000 -0.000001 7.875153
									CHANNELS 3 Xrotation Yrotation Zrotation
									JOINT LeftHand
									{
										OFFSET 0.000000 -0.000002 15.803696
										CHANNELS 3 Xrotation Yrotation Zrotation
										End Site
										{
											OFFSET 0.000000 0.000000 0.100006
										}
									}
								}
							}
						}
					}
				}
			}
		}
	}
	JOINT RightUpLeg
	{
		OFFSET -7.060482 1.086101 -1.294701
		CHANNELS 3 Xrotation Yrotation Zrotation
		JOINT RightUpLegRoll
		{
			OFFSET 0.000000 -0.000003 18.530800
			CHANNELS 3 Xrotation Yrotation Zrotation
			JOINT RightLeg
			{
				OFFSET 0.000000 0.000004 -22.947601
				CHANNELS 3 Xrotation Yrotation Zrotation
				JOINT RightLegRoll
				{
					OFFSET 0.000000 -0.000004 23.022598
					CHANNELS 3 Xrotation Yrotation Zrotation
					JOINT RightFoot
					{
						OFFSET 0.000000 -0.000003 19.162498
						CHANNELS 3 Xrotation Yrotation Zrotation
						JOINT RightToeBase
						{
							OFFSET 0.000000 -0.000003 16.018799
							CHANNELS 3 Xrotation Yrotation Zrotation
							End Site
							{
								OFFSET 0.006790 0.894206 7.757812
							}
						}
					}
				}
			}
		}
	}
	JOINT LeftUpLeg
	{
		OFFSET 7.060482 1.086101 -1.294701
		CHANNELS 3 Xrotation Yrotation Zrotation
		JOINT LeftUpLegRoll
		{
			OFFSET 0.000000 -0.000003 18.530899
			CHANNELS 3 Xrotation Yrotation Zrotation
			JOINT LeftLeg
			{
				OFFSET 0.000000 -0.000003 22.947495
				CHANNELS 3 Xrotation Yrotation Zrotation
				JOINT LeftLegRoll
				{
					OFFSET 0.000000 -0.000004 23.235504
					CHANNELS 3 Xrotation Yrotation Zrotation
					JOINT LeftFoot
					{
						OFFSET 0.000000 -0.000003 18.949600
						CHANNELS 3 Xrotation Yrotation Zrotation
						JOINT LeftToeBase
						{
							OFFSET 0.000000 -0.000002 16.018799
							CHANNELS 3 Xrotation Yrotation Zrotation
							End Site
							{
								OFFSET -0.030430 0.894206 7.757828
							}
						}
					}
				}
			}
		}
	}
}
MOTION
Frames: 8
Frame Time: 0.041667
50.151001 -5.600307 95.508797 -2.343572 1.751045 -4.531608 -2.139820 -0.900619 0.036582 -0.291165 -1.802227 0.062622 1.354259 -1.801407 0.084072 21.778239 4.811316 5.932607 -7.897743 -0.609983 6.094123 8.294037 -62.697913 8.997082 -15.963248 -107.884033 -37.394958 -0.000001 -0.000004 -0.000000 58.618371 -16.628814 7.465893 -0.000019 -0.000006 -3.002110 -4.999958 -7.998808 0.000027 1.215555 76.744627 0.769315 -48.588542 104.422432 76.207214 -0.000000 0.000000 -0.000000 61.476600 19.985521 -9.755059 -0.000000 -0.000017 3.009350 -5.000226 7.999107 0.000004 4.575217 -175.727612 -2.329323 -179.999991 0.000005 -1.252993 176.566537 -1.188865 -0.531318 -0.000004 0.000003 0.064560 69.823371 6.996190 1.805042 25.611961 -7.349786 0.226151 2.897124 169.902649 -3.206985 -0.000005 -0.000003 -1.228180 -8.940326 2.612447 0.409565 -0.000006 0.000000 -0.255165 72.655113 -6.921466 -1.772785 25.680825 7.346103 -0.323823 
50.144699 -5.601365 95.499603 -2.350552 1.739216 -4.545059 -2.139160 -0.896688 0.035997 -0.286964 -1.794418 0.061193 1.358455 -1.793596 0.082559 21.795965 4.785999 5.940442 -7.898438 -0.569268 6.100315 8.281017 -62.715582 8.979323 -15.968605 -107.862805 -37.479529 -0.000001 -0.000004 -0.000001 58.666783 -16.635607 7.481172 -0.000017 -0.000008 -3.002111 -4.999959 -7.998809 0.000024 1.282806 76.717388 0.694321 -48.618789 104.432609 76.254670 0.000002 0.000000 0.000000 61.482781 19.995131 -9.762599 0.000002 -0.000022 3.009349 -5.000227 7.999109 0.000004 4.560593 -175.709581 -2.312415 -179.999991 0.000005 -1.252993 176.528589 -1.199794 -0.532772 -0.000003 0.000003 0.066490 69.855432 6.995239 1.805152 25.605899 -7.349790 0.216614 2.894502 169.928591 -3.171545 -0.000005 -0.000005 -1.228230 -8.970499 2.584442 0.409351 -0.000006 -0.000000 -0.257598 72.686648 -6.920638 -1.772908 25.679408 7.346098 -0.321819 
50.150002 -5.602346 95.450790 -2.357803 1.727157 -4.558235 -2.138488 -0.892658 0.035422 -0.282543 -1.786428 0.059824 1.362872 -1.785625 0.081105 21.813461 4.759764 5.948423 -7.899215 -0.527097 6.106529 8.266189 -62.733061 8.959561 -15.971965 -107.842424 -37.562916 -0.000001 -0.000004 -0.000000 58.715701 -16.642429 7.496524 -0.000017 -0.000006 -3.002109 -4.999958 -7.998806 0.000025 1.353069 76.689221 0.616009 -48.643928 104.442861 76.296683 0.000001 -0.000000 -0.000002 61.489618 20.004220 -9.769809 0.000002 -0.000020 3.009348 -5.000227 7.999109 0.000004 4.544670 -175.690538 -2.295345 -179.999991 0.000005 -1.252992 176.487170 -1.210718 -0.533315 -0.000004 0.000003 0.068590 69.890034 6.994259 1.805095 25.599441 -7.349803 0.206648 2.890646 169.956540 -3.134138 -0.000005 -0.000005 -1.228230 -9.003482 2.554833 0.409131 -0.000005 -0.000000 -0.260194 72.720437 -6.919762 -1.773182 25.677693 7.346106 -0.319493 
50.133999 -5.603375 95.470001 -2.365246 1.714918 -4.571227 -2.137816 -0.888557 0.034854 -0.277972 -1.778329 0.058498 1.367437 -1.777544 0.079691 21.830842 4.732890 5.956498 -7.900042 -0.483905 6.112764 8.250040 -62.750218 8.938336 -15.974549 -107.821988 -37.646165 -0.000001 -0.000004 -0.000002 58.764912 -16.649305 7.512010 -0.000018 -0.000008 -3.002109 -4.999961 -7.998803 0.000026 1.425328 76.660520 0.535480 -48.666505 104.453147 76.336127 -0.000000 0.000001 -0.000002 61.496790 20.013035 -9.776745 0.000001 -0.000022 3.009348 -5.000227 7.999113 0.000006 4.527841 -175.670512 -2.278125 -179.999991 0.000004 -1.252993 176.443293 -1.221649 -0.534925 -0.000003 0.000003 0.070810 69.926623 6.993194 1.805100 25.592872 -7.349815 0.196402 2.885938 169.985459 -3.095380 -0.000005 -0.000003 -1.228210 -9.038431 2.524106 0.408893 -0.000005 0.000000 -0.262905 72.755831 -6.918835 -1.773354 25.675875 7.346099 -0.316954 
50.130501 -5.604916 95.454308 -2.372815 1.702589 -4.584120 -2.137133 -0.884419 0.034290 -0.273312 -1.770160 0.057193 1.372094 -1.769393 0.078301 21.848109 4.705652 5.964648 -7.900906 -0.440131 6.119000 8.233152 -62.767301 8.916289 -15.975819 -107.802467 -37.728473 -0.000001 -0.000004 -0.000000 58.814370 -16.656188 7.527444 -0.000019 -0.000005 -3.002110 -4.999959 -7.998806 0.000026 1.498595 76.631485 0.453835 -48.687351 104.463413 76.373734 0.000001 -0.000001 -0.000004 61.504112 20.021704 -9.783456 0.000002 -0.000017 3.009352 -5.000225 7.999112 0.000007 4.510497 -175.651456 -2.260955 -179.999991 0.000005 -1.252993 176.398023 -1.232563 -0.535583 -0.000004 0.000003 0.073099 69.964189 6.992154 1.805048 25.586205 -7.349816 0.185992 2.880748 170.014378 -3.055892 -0.000005 -0.000003 -1.228170 -9.074509 2.492727 0.408623 -0.000004 -0.000000 -0.265681 72.792106 -6.917901 -1.773567 25.673952 7.346098 -0.314285 
50.122398 -5.606718 95.457298 -2.380393 1.690240 -4.596987 -2.136449 -0.880269 0.033728 -0.268630 -1.761971 0.055894 1.376770 -1.761222 0.076914 21.865281 4.678333 5.972819 -7.901782 -0.396211 6.125250 8.216067 -62.784308 8.894027 -15.977844 -107.781977 -37.811685 -0.000001 -0.000005 -0.000001 58.863977 -16.663054 7.543104 -0.000018 -0.000007 -3.002110 -4.999961 -7.998806 0.000025 1.571870 76.602334 0.372148 -48.707339 104.473733 76.410364 -0.000001 0.000001 0.000001 61.511652 20.030308 -9.790220 0.000001 -0.000018 3.009350 -5.000226 7.999113 0.000005 4.493015 -175.631416 -2.243708 -179.999991 0.000005 -1.252993 176.352424 -1.243475 -0.537264 -0.000004 0.000003 0.075403 70.002062 6.991048 1.805167 25.579540 -7.349818 0.175546 2.875417 170.044308 -3.016175 -0.000005 -0.000004 -1.228130 -9.110876 2.461192 0.408317 -0.000005 -0.000000 -0.268474 72.828606 -6.916997 -1.773775 25.672034 7.346096 -0.311591 
50.118099 -5.605004 95.451302 -2.387934 1.677942 -4.609907 -2.135768 -0.876139 0.033163 -0.263992 -1.753821 0.054582 1.381407 -1.753080 0.075515 21.882563 4.651201 5.980995 -7.902639 -0.352582 6.131498 8.199315 -62.801390 8.872134 -15.979173 -107.762470 -37.894047 -0.000001 -0.000004 0.000001 58.913401 -16.669949 7.558736 -0.000018 -0.000007 -3.002110 -4.999961 -7.998803 0.000028 1.644187 76.573264 0.291501 -48.728438 104.483931 76.448231 -0.000001 0.000000 -0.000001 61.518981 20.038962 -9.796935 0.000001 -0.000018 3.009351 -5.000225 7.999111 0.000004 4.475788 -175.612360 -2.226572 -179.999991 0.000005 -1.252993 176.307495 -1.254387 -0.538947 -0.000004 0.000003 0.077675 70.039417 6.989996 1.805029 25.572867 -7.349824 0.165175 2.870350 170.073227 -2.976879 -0.000005 -0.000004 -1.228100 -9.146674 2.429982 0.407968 -0.000005 -0.000000 -0.271233 72.864683 -6.916074 -1.774007 25.670113 7.346096 -0.308950 
50.109200 -5.606795 95.448494 -2.395324 1.665764 -4.622970 -2.135095 -0.872059 0.032593 -0.259464 -1.745752 0.053237 1.385932 -1.745029 0.074085 21.899963 4.624537 5.989108 -7.903476 -0.309681 6.137732 8.183467 -62.818609 8.851231 -15.981917 -107.742040 -37.977231 -0.000001 -0.000005 0.000002 58.962578 -16.676756 7.574253 -0.000019 -0.000004 -3.002110 -4.999960 -7.998806 0.000024 1.714592 76.544687 0.212924 -48.751428 104.494238 76.488085 -0.000000 -0.000001 -0.000000 61.526016 20.047932 -9.804012 0.000002 -0.000020 3.009350 -5.000225 7.999109 0.000002 4.459216 -175.593331 -2.209497 -179.999991 0.000005 -1.252993 176.264301 -1.264304 -0.539546 -0.000003 0.000002 0.079861 70.075419 6.988979 1.805083 25.566312 -7.349822 0.155005 2.865892 170.101162 -2.938572 -0.000005 -0.000004 -1.228090 -9.181069 2.399577 0.407574 -0.000005 0.000000 -0.273911 72.899599 -6.915181 -1.774212 25.668303 7.346100 -0.306467 
